<svg viewBox="0 0 44 24" xmlns="http://www.w3.org/2000/svg"><path d="M 30.25 9.25 L 36.5 15.75 L 42.75 9.25" fill="none" stroke="black" stroke-width="2.5" stroke-linecap="round" stroke-linejoin="round"/><path d="M 12 24 C 18.5647 24 24 18.5529 24 12 C 24 5.4353 18.553 0 11.9883 0 C 5.4353 0 0 5.4353 0 12 C 0 18.5529 5.4471 24 12 24 Z M 12 16.0118 C 8.4706 16.0118 5.7412 17.2706 4.5529 18.6823 C 2.9647 16.9176 2.0118 14.5765 2.0118 12 C 2.0118 6.447 6.4353 2 11.9883 2 C 17.5412 2 21.9883 6.447 22 12 C 22.0119 14.5765 21.0471 16.9176 19.4589 18.6941 C 18.2706 17.2823 15.5412 16.0118 12 16.0118 Z M 12 14.0118 C 14.2588 14.0353 16.0353 12.1059 16.0353 9.5765 C 16.0353 7.2 14.2588 5.2235 12 5.2235 C 9.7412 5.2235 7.9529 7.2 7.9647 9.5765 C 7.9765 12.1059 9.7412 13.9882 12 14.0118 Z"/></svg>